<svg xmlns="http://www.w3.org/2000/svg" width="300" height="300" viewBox="0 0 300 300">
  <defs>
    <style>
      .d7f4c7f7-7cae-446d-84a3-33c94fdcd9ef {
        fill-rule: evenodd;
      }

      .\32 90a0d73-2018-4448-b5c9-7b6ab6fa921d {
        fill: none;
      }
    </style>
  </defs>
  <title>icn-code_debug</title>
  <g id="dcadd5ee-ece6-4c13-bfb1-ae8df8a0538b" data-name="レイヤー 2">
    <g id="2ea813df-4872-427f-98d4-237ec0b2a5ea" data-name="レイヤー 1">
      <g id="901f3c21-3a1f-4e72-a258-4f52cd94007b" data-name="icn-code_debug">
        <path class="d7f4c7f7-7cae-446d-84a3-33c94fdcd9ef" d="M89.16,54.17,82.5,47.5V15.27a5.5,5.5,0,0,0-11,0V49.71a5.43,5.43,0,0,0,1.92,3.87h.21l6.12,6.12a75.66,75.66,0,0,0-10.41,8.64h0A75.65,75.65,0,0,0,59.77,80L53.1,73.29l0,.45a4.91,4.91,0,0,0-3.87-1.25H14.77c-2.91,0-5.27,1.09-5.27,4s2.36,4,5.27,4H47l7.82,8.1a75.35,75.35,0,0,0,12.67,84.59L173.93,66.75A75.35,75.35,0,0,0,89.16,54.17Zm-2.75,78.09a14.94,14.94,0,1,1,0-21.13A14.94,14.94,0,0,1,86.41,132.26Zm25.32-46.45a14.94,14.94,0,1,1,21.13,0A14.94,14.94,0,0,1,111.74,85.81Zm8.16,48.73,99.77,99.77a75.41,75.41,0,0,1-72.25,9.84l-6.91,6.7v32.23c0,2.91-1.09,5.27-4,5.27s-4-2.36-4-5.27V248.63c0-1.53.15-2.9,1.19-3.87l-.51,0,4.95-4.95a75.33,75.33,0,0,1-16.74-12.63l-5-5-5.87,6.09v32.23c0,2.91-3.09,5.27-6,5.27s-6-2.36-6-5.27V226a5.16,5.16,0,0,1,1.62-3.87l-.08,0,8.16-8.16L91.12,196.9,77.5,210.37V242.6c0,2.91-1.59,5.27-4.5,5.27s-4.5-2.36-4.5-5.27V208.16c0-1.53.17-2.9,1.21-3.87l-.49,0,14.63-14.63-9.54-9.54Zm164.34-4H249.79a5.16,5.16,0,0,0-3.87,1.62.5.5,0,0,0,0-.09l-5.35,5.35a75.34,75.34,0,0,0-12.63-16.74l-5.81-5.81,7.3-7.33h32.23a5.5,5.5,0,0,0,0-11H227.19a5.58,5.58,0,0,0-3.87,2.05s0,.34,0,.34l-8.57,8.57L198.06,90.78,211.52,77.5h32.23a5.5,5.5,0,0,0,0-11H209.31a5.17,5.17,0,0,0-3.87,1.64l0-.06-15,15-9.54-9.54-45.57,45.57,99.77,99.77a75.42,75.42,0,0,0,9.65-72.75L252,138.5h32.23c2.91,0,5.27-1.09,5.27-4S287.14,130.5,284.23,130.5Z"/>
        <rect class="290a0d73-2018-4448-b5c9-7b6ab6fa921d" width="300" height="300"/>
      </g>
    </g>
  </g>
</svg>
