<svg xmlns="http://www.w3.org/2000/svg" width="300" height="300" viewBox="0 0 300 300">
  <defs>
    <style>
      .d5485e2c-15bd-493c-b605-3e1ac4773ba7 {
        fill: none;
      }
    </style>
  </defs>
  <title>icn-code_save</title>
  <g id="21469629-785f-491b-b08e-ba0c85963266" data-name="レイヤー 2">
    <g id="1a0f6f7d-9e6d-486b-a4ba-3cb6adfa1f87" data-name="レイヤー 1">
      <g id="110c2e20-b383-4f9c-aa6d-ec1e6648fe97" data-name="codeアイコン">
        <g id="017b89ff-c070-4435-a327-582fa19ecf6a" data-name="icn-code_save">
          <path d="M290,271h0a18.05,18.05,0,0,1-18,18H28a18.06,18.06,0,0,1-18-18h0V237a18.06,18.06,0,0,1,18-18h0a18,18,0,0,1,18,18v16H254V237a18.06,18.06,0,0,1,18-18h0a18,18,0,0,1,18,18ZM150,181.16a60,60,0,1,0-60-60A60,60,0,0,0,150,181.16Z"/>
          <rect class="d5485e2c-15bd-493c-b605-3e1ac4773ba7" width="300" height="300"/>
        </g>
      </g>
    </g>
  </g>
</svg>
