<svg xmlns="http://www.w3.org/2000/svg" width="300" height="300" viewBox="0 0 300 300">
  <defs>
    <style>
      .a19249c1-eaef-4b46-a1f4-732e1559f01a {
        fill: none;
      }
    </style>
  </defs>
  <title>icn-code_save</title>
  <g id="5dd0eb72-eb67-4e9b-9367-d4808d46db48" data-name="レイヤー 2">
    <g id="224831e5-072c-40b6-823d-52e64b7b4b41" data-name="レイヤー 1">
      <g id="90d03e2b-a8f0-4cb5-9364-ef2c89f9a8ad" data-name="codeアイコン">
        <g id="1ba78c34-a714-4036-b2e8-1d23e47cd980" data-name="icn-code_save">
          <path d="M188.79,264.92H112a7,7,0,0,1-7-7V202.17a7,7,0,0,1,7-7h76.79a7,7,0,0,1,7,7v55.75A7,7,0,0,1,188.79,264.92ZM82,10V114.07C82,120.49,87,126,93.38,126h114c6.42,0,12.59-5.51,12.59-11.93V10ZM196,91.5A11.5,11.5,0,0,1,184.5,103h-68A11.5,11.5,0,0,1,105,91.5h0A11.5,11.5,0,0,1,116.5,80h68A11.5,11.5,0,0,1,196,91.5Zm0-47A11.5,11.5,0,0,1,184.5,56h-68A11.5,11.5,0,0,1,105,44.5h0A11.5,11.5,0,0,1,116.5,33h68A11.5,11.5,0,0,1,196,44.5ZM277.16,10H243V137.46c0,6.39-4.56,12.54-11,12.54H71c-6.39,0-13-6.15-13-12.54V10H23.63C17.23,10,12,14.68,12,21.07V276.54C12,282.94,17.23,289,23.63,289H82V183.54C82,177.15,87,173,93.38,173h114c6.39,0,12.59,4.15,12.59,10.54V289h57.16c6.39,0,11.84-6.06,11.84-12.46V21.07C289,14.68,283.55,10,277.16,10Z"/>
          <rect class="a19249c1-eaef-4b46-a1f4-732e1559f01a" width="300" height="300"/>
        </g>
      </g>
    </g>
  </g>
</svg>
