<svg xmlns="http://www.w3.org/2000/svg" width="300" height="300" viewBox="0 0 300 300">
  <defs>
    <style>
      .\36 62921f4-a93e-4b67-aef8-88a4299eb903 {
        fill: none;
      }
    </style>
  </defs>
  <title>icn-global_setting</title>
  <g id="b08a1def-fdf8-4bdd-9507-75cc9df1f5ca" data-name="レイヤー 2">
    <g id="81cd77d4-4ea1-46f2-8923-e9d07ef3caa9" data-name="レイヤー 1">
      <g id="f2087932-aac2-4b31-b3f6-adf4690566ff" data-name="icn-global_setting">
        <path d="M288.5,176.9V124.53l-39.61-6.67a102.93,102.93,0,0,0-5.72-14.3l23.65-33-37-37-32.9,23.52a105.87,105.87,0,0,0-14.36-6.33L175.93,10.5H123.57l-6.65,40.25a104.9,104.9,0,0,0-14.38,6.15L69.62,33.47l-37,37.07,23.56,33a106.16,106.16,0,0,0-6.29,14.32L9.5,124.53V176.9L50,183.58A105,105,0,0,0,56,197.75L32.5,230.84l37.07,37,33.17-23.68a102.34,102.34,0,0,0,14.12,5.48l6.71,39.83h52.36l6.7-39.83a103.56,103.56,0,0,0,14.1-5.66l33.15,23.76,37-37-23.63-33.07a102.6,102.6,0,0,0,5.52-14.17ZM149.75,212.25a61.54,61.54,0,1,1,61.54-61.54,61.53,61.53,0,0,1-61.54,61.54Zm0-26.66"/>
        <rect class="662921f4-a93e-4b67-aef8-88a4299eb903" width="300" height="300"/>
        <rect class="662921f4-a93e-4b67-aef8-88a4299eb903" width="300" height="300"/>
      </g>
    </g>
  </g>
</svg>
