<svg xmlns="http://www.w3.org/2000/svg" width="300" height="300" viewBox="0 0 300 300">
  <defs>
    <style>
      .cd97f50f-0627-4ac6-a207-05a5b130af0e {
        fill: none;
      }
    </style>
  </defs>
  <title>icn-code_pin</title>
  <g id="a9fa5a61-9fa9-48d8-a01d-162d527bf179" data-name="レイヤー 2">
    <g id="81210c5e-b5cf-4a72-8faa-339db778ae56" data-name="レイヤー 1">
      <g id="a763a6be-96ba-4cce-8b26-88a7f143fbd0" data-name="codeアイコン">
        <g>
          <rect class="cd97f50f-0627-4ac6-a207-05a5b130af0e" width="300" height="300"/>
          <path d="M198.77,209.28l37.63-56.69,14.94,14.94a8.36,8.36,0,0,0,11.79,0L286.73,144a8.36,8.36,0,0,0,0-11.79L167.1,12.53a8.36,8.36,0,0,0-11.79,0L131.72,36.12a8.36,8.36,0,0,0,0,11.79l14.94,14.94L90,100.49c-26.84,1.23-55.06,11-80.56,29l73.44,73.44L16.31,269.47a8.25,8.25,0,0,0-.09,11.7l1.12,1.12a8.14,8.14,0,0,0,11.61-.19L95.5,215.56l74.29,74.29C187.78,264.35,197.54,236.12,198.77,209.28Z"/>
        </g>
      </g>
    </g>
  </g>
</svg>
