<svg xmlns="http://www.w3.org/2000/svg" width="300" height="300" viewBox="0 0 300 300">
  <defs>
    <style>
      .b12319ca-8cad-4871-992c-9a39d055985c {
        fill: none;
      }
    </style>
  </defs>
  <title>icn-global_extension</title>
  <g id="5e711bf7-fc98-4281-9793-a8b78fe45852" data-name="レイヤー 2">
    <g id="01881fa1-182e-4910-9fd8-939f930ef891" data-name="レイヤー 1">
      <g id="0be97ddf-fd8a-4e4c-ae18-445408ec4bd5" data-name="グローバルアイコン">
        <g id="b4285111-d524-4d8e-bff9-68a473f08e13" data-name="icn-global_extension">
          <rect class="b12319ca-8cad-4871-992c-9a39d055985c" width="300" height="300"/>
          <path d="M217.86,129.5V49.69L149.1,10,80.33,49.69v79.23l-.26.15.4.23-.17.1-.58-.33v.66L14,167.68v79.38l68.62,39.69L149,248.38,217.45,288,286,248.31V168.93ZM92.5,56.72,149.1,24.05l56.59,32.66V122l-.15.09L148.82,89.38,92.5,121.89Zm-9.74,216L26.17,240V174.71L79.72,143.8v64.65l57.43,32.86Zm59.64-40.23L91.71,203.6l0-60.71L142.4,172.1Zm6.42-70.81L96.77,131.6l52.05-30.05L195,128.21l5.87,3.39Zm6,10.45,50.85-29v60.35l-50.85,29Zm119,69.18-56.29,32.66-56.29-32.66v-.45l56.59-32.38v-65l56,32.49Z"/>
        </g>
      </g>
    </g>
  </g>
</svg>
