<svg xmlns="http://www.w3.org/2000/svg" width="300" height="300" viewBox="0 0 300 300">
  <defs>
    <style>
      .\35 f5881bc-72c2-4044-af99-b13208b11117 {
        fill-rule: evenodd;
      }

      .cf61ad19-2a63-4306-bf54-f70b075d1ced {
        fill: none;
      }
    </style>
  </defs>
  <title>icn-global_close</title>
  <g id="1c86594e-878e-4143-b9d6-663c3e4e701c" data-name="レイヤー 2">
    <g id="31e1defe-8db3-4574-b6e3-9d5f4efc7e5b" data-name="レイヤー 1">
      <g id="49018b02-9d7b-47dd-97dd-4ad4c3335641" data-name="icn-global_close">
        <path id="dbb67926-fdb9-4b47-b877-13fdbef48305" data-name="icn-global_delete" class="5f5881bc-72c2-4044-af99-b13208b11117" d="M288.5,275.41a13.09,13.09,0,0,1-13.09,13.09H22.59A13.09,13.09,0,0,1,9.5,275.41V22.59A13.09,13.09,0,0,1,22.59,9.5H275.41A13.09,13.09,0,0,1,288.5,22.59ZM264.5,37.5H37.5v227h227ZM88.19,102.92a13.09,13.09,0,0,1,22.35-9.26l38.75,38.75L188,93.66a13.09,13.09,0,0,1,18.52,18.52l-38.75,38.75,38.75,38.75A13.09,13.09,0,1,1,188,208.2l-38.75-38.75L110.54,208.2A13.09,13.09,0,1,1,92,189.68l38.75-38.75L92,112.18A13.05,13.05,0,0,1,88.19,102.92Z"/>
        <rect class="cf61ad19-2a63-4306-bf54-f70b075d1ced" width="300" height="300"/>
      </g>
    </g>
  </g>
</svg>
