<svg xmlns="http://www.w3.org/2000/svg" width="300" height="300" viewBox="0 0 300 300">
  <defs>
    <style>
      .\33 9eca657-e069-472a-896a-2fccb1fe630d {
        fill: none;
      }
    </style>
  </defs>
  <title>icn-code_console</title>
  <g id="a39629e9-0756-4546-a523-cb9dcc3cb93b" data-name="レイヤー 2">
    <g id="dd11a8c7-a8a3-4298-85e0-dfe3ecd33db5" data-name="レイヤー 1">
      <g id="4f5b8e7e-d034-4059-8225-8391601a1dc8" data-name="icn-code_console">
        <path d="M288.5,237.19a51.31,51.31,0,0,1-51.31,51.31H60.81A51.31,51.31,0,0,1,9.5,237.19V60.81A51.31,51.31,0,0,1,60.81,9.5H237.19A51.31,51.31,0,0,1,288.5,60.81ZM59.89,25.5c-20.13,0-37.39,16.89-37.39,37V239.23c0,20.13,17.25,36.27,37.39,36.27H236.6c20.13,0,37.9-16.15,37.9-36.27V62.51c0-20.13-17.77-37-37.9-37ZM55.16,80.12c-5.87,5.73-6.34,13.72,0,20.75l49.34,51.47L55.16,203.81c-6.34,7-5.87,15,0,20.75s15.78,5.37,21.28,0,59.29-61.84,59.29-61.84a14.43,14.43,0,0,0,0-20.75S81.94,85.49,76.44,80.12,61,74.39,55.16,80.12ZM249.5,193.5h-101v31h101Z"/>
        <rect class="39eca657-e069-472a-896a-2fccb1fe630d" width="300" height="300"/>
      </g>
    </g>
  </g>
</svg>
